<svg id="AlpineEuropeLogoSVG" data-name="AlpineEuropeLogoSVG" xmlns="http://www.w3.org/2000/svg" height="100" viewBox="0 0 734.51 159.71">
<defs>
<style>.cls-1{fill:#004994;}.cls-2{fill:#1d1d1b;}</style>
</defs>
<title>Alpine Emotion in Mobility</title>
<rect class="cls-1" x="525.28" y="0.01" width="22.43" height="89.69"/>
<polygon class="cls-1" points="379.17 0.01 356.8 0.01 356.79 89.73 428.49 89.73 428.49 69.96 379.17 69.96 379.17 0.01"/>
<polygon class="cls-1" points="274.12 0.01 186 89.7 209.81 89.7 297.93 0.01 274.12 0.01"/>
<polygon class="cls-1" points="227.63 0.01 139.51 89.7 163.35 89.7 251.46 0.01 227.63 0.01"/>
<polygon class="cls-1" points="181.15 0.01 93.03 89.7 116.86 89.7 204.97 0.01 181.15 0.01"/>
<polygon class="cls-1" points="134.67 0.01 46.55 89.7 70.39 89.7 158.48 0.01 134.67 0.01"/>
<polygon class="cls-1" points="0 89.7 23.9 89.7 112 0.01 88.19 0.01 0 89.7"/>
<path class="cls-1" d="M779.43,58.2V39.39H725.7c-8.59-.06-11.55.5-16.65,2.4a18.44,18.44,0,0,0-11.39,11.29c-1.59,3.83-2.47,8-2.47,16.83v59.18h84.24V109.32H717.61v-17h53.77V74.36H717.61V58.2Z" transform="translate(-44.91 -39.38)"/>
<path class="cls-1" d="M374.71,39.94a32.22,32.22,0,0,0-17.2,9.5c-9.69,9.75-8.39,8.79-78.18,79.64h28.83l65.29-65.66,0,65.66H395.9V39.39H380.33a36.38,36.38,0,0,0-5.62.56" transform="translate(-44.91 -39.38)"/>
<path class="cls-1" d="M668.32,97.83S645.67,68.9,637.4,58c-5.13-6.71-12.14-18.55-30.18-18.55-3.08-.1-5.23-.1-9.26-.09v89.7h21.58V70L665,129.1h24.87V39.39H668.32Z" transform="translate(-44.91 -39.38)"/>
<path class="cls-1" d="M536.61,39.39H477.93v89.7h22.7V99.31h36c19.76-.2,29.12-8.3,29.12-24.47V63.19c0-15.17-9.36-23.66-29.12-23.8m8.46,33.29c-.1,2.72-.5,7.15-10.12,7.18H500.63V59.08h34.3c9.61.07,10,4.33,10.14,7.17Z" transform="translate(-44.91 -39.38)"/>
<polygon class="cls-2" points="189.27 142.97 170.03 142.97 170.03 131.8 187.46 131.8 187.46 126.88 170.03 126.88 170.03 116.08 188.49 116.08 188.49 111.14 164.2 111.14 164.2 147.9 189.27 147.9 189.27 142.97"/>
<path class="cls-2" d="M277.41,187.28h-5.68V173.6q0-3.94-1.12-5.71a4.1,4.1,0,0,0-3.76-1.76,4.53,4.53,0,0,0-3.79,2.23,9.14,9.14,0,0,0-1.55,5.34v13.58H255.8V173.14q0-7-5-7a4.46,4.46,0,0,0-3.79,2.11,9.25,9.25,0,0,0-1.48,5.46v13.58h-5.69v-25.1h5.69v4h.09a8.71,8.71,0,0,1,7.92-4.56,7.46,7.46,0,0,1,4.55,1.44,7.15,7.15,0,0,1,2.66,3.76,9,9,0,0,1,8.33-5.2q8.28,0,8.28,10.22Z" transform="translate(-44.91 -39.38)"/>
<path class="cls-2" d="M295.48,187.87a12.43,12.43,0,0,1-9.28-3.52,12.7,12.7,0,0,1-3.47-9.32q0-6.33,3.62-9.88t9.74-3.56q5.88,0,9.17,3.46t3.28,9.58a13.15,13.15,0,0,1-3.54,9.62,12.69,12.69,0,0,1-9.52,3.62m.27-21.74a6.46,6.46,0,0,0-5.27,2.33,9.74,9.74,0,0,0-1.94,6.42,9.21,9.21,0,0,0,2,6.21,6.61,6.61,0,0,0,5.25,2.27,6.24,6.24,0,0,0,5.16-2.23,9.88,9.88,0,0,0,1.8-6.35,10,10,0,0,0-1.8-6.4,6.22,6.22,0,0,0-5.16-2.25" transform="translate(-44.91 -39.38)"/>
<path class="cls-2" d="M327.56,187a9.91,9.91,0,0,1-4.38.83q-7.31,0-7.31-7V166.64h-4.19v-4.46h4.19v-5.81l5.69-1.62v7.43h6v4.46h-6v12.55a5,5,0,0,0,.81,3.19,3.33,3.33,0,0,0,2.69,1,3.87,3.87,0,0,0,2.5-.83Z" transform="translate(-44.91 -39.38)"/><path class="cls-2" d="M335.33,156.91a3.43,3.43,0,0,1-2.39-.9,3,3,0,0,1-1-2.31,3.07,3.07,0,0,1,1-2.33,3.37,3.37,0,0,1,2.39-.93,3.51,3.51,0,0,1,2.46.93,3.08,3.08,0,0,1,1,2.33,3,3,0,0,1-1,2.27,3.47,3.47,0,0,1-2.46.94m2.82,30.37h-5.69v-25.1h5.69Z" transform="translate(-44.91 -39.38)"/>
<path class="cls-2" d="M356.7,187.87a12.41,12.41,0,0,1-9.27-3.52A12.66,12.66,0,0,1,344,175q0-6.33,3.62-9.88t9.74-3.56q5.88,0,9.16,3.46t3.29,9.58a13.15,13.15,0,0,1-3.54,9.62q-3.54,3.63-9.53,3.62m.27-21.74a6.49,6.49,0,0,0-5.27,2.33,9.74,9.74,0,0,0-1.93,6.42,9.16,9.16,0,0,0,2,6.21,6.59,6.59,0,0,0,5.24,2.27,6.24,6.24,0,0,0,5.16-2.23,9.88,9.88,0,0,0,1.81-6.35,10,10,0,0,0-1.81-6.4,6.22,6.22,0,0,0-5.16-2.25" transform="translate(-44.91 -39.38)"/>
<path class="cls-2" d="M397.91,187.28h-5.69V173.14q0-7-5-7a5.44,5.44,0,0,0-4.3,2,7.28,7.28,0,0,0-1.69,4.92v14.31h-5.71v-25.1h5.71v4.17h.1a9,9,0,0,1,8.14-4.76,7.59,7.59,0,0,1,6.25,2.66q2.16,2.67,2.16,7.69Z" transform="translate(-44.91 -39.38)"/>
<path class="cls-2" d="M421.51,156.91a3.43,3.43,0,0,1-2.39-.9,3,3,0,0,1-1-2.31,3.07,3.07,0,0,1,1-2.33,3.37,3.37,0,0,1,2.39-.93,3.46,3.46,0,0,1,2.45.93,3.05,3.05,0,0,1,1,2.33,3,3,0,0,1-1,2.27,3.43,3.43,0,0,1-2.45.94m2.82,30.37h-5.69v-25.1h5.69Z" transform="translate(-44.91 -39.38)"/>
<path class="cls-2" d="M454.11,187.28h-5.69V173.14q0-7-5-7a5.44,5.44,0,0,0-4.29,2,7.23,7.23,0,0,0-1.69,4.92v14.31h-5.71v-25.1h5.71v4.17h.1a9,9,0,0,1,8.14-4.76,7.6,7.6,0,0,1,6.25,2.66q2.15,2.67,2.15,7.69Z" transform="translate(-44.91 -39.38)"/>
<path class="cls-2" d="M513.23,187.28h-5.78V164.53q0-2.79.34-6.83h-.1a25.35,25.35,0,0,1-.95,3.31l-10.49,26.27h-4L481.71,161.2a26,26,0,0,1-.93-3.5h-.1c.13,1.4.2,3.7.2,6.88v22.7h-5.4V152.13h8.22l9.24,23.41a34.84,34.84,0,0,1,1.37,4h.12c.61-1.85,1.1-3.22,1.47-4.12l9.42-23.31h7.91Z" transform="translate(-44.91 -39.38)"/>
<path class="cls-2" d="M531.76,187.87a12.41,12.41,0,0,1-9.27-3.52A12.66,12.66,0,0,1,519,175q0-6.33,3.62-9.88t9.74-3.56q5.88,0,9.16,3.46t3.29,9.58a13.15,13.15,0,0,1-3.54,9.62q-3.54,3.63-9.53,3.62m.27-21.74a6.49,6.49,0,0,0-5.27,2.33,9.74,9.74,0,0,0-1.93,6.42,9.16,9.16,0,0,0,2,6.21,6.59,6.59,0,0,0,5.24,2.27,6.24,6.24,0,0,0,5.16-2.23,9.88,9.88,0,0,0,1.81-6.35,10,10,0,0,0-1.81-6.4,6.22,6.22,0,0,0-5.16-2.25" transform="translate(-44.91 -39.38)"/>
<path class="cls-2" d="M556.42,183.65h-.1v3.63h-5.68V150.12h5.68v16.47h.1a9.32,9.32,0,0,1,8.53-5,9,9,0,0,1,7.44,3.36q2.68,3.38,2.68,9,0,6.3-3,10.08a10,10,0,0,1-8.24,3.79,8.08,8.08,0,0,1-7.4-4.22m-.15-10v3.11a6.66,6.66,0,0,0,1.76,4.66,6.18,6.18,0,0,0,9.41-.56,11.45,11.45,0,0,0,1.8-6.87,9,9,0,0,0-1.68-5.8,5.53,5.53,0,0,0-4.55-2.09,6.13,6.13,0,0,0-4.88,2.15,8,8,0,0,0-1.86,5.4" transform="translate(-44.91 -39.38)"/>
<path class="cls-2" d="M583.75,156.91a3.43,3.43,0,0,1-2.39-.9,3,3,0,0,1-1-2.31,3.07,3.07,0,0,1,1-2.33,3.37,3.37,0,0,1,2.39-.93,3.48,3.48,0,0,1,2.45.93,3.05,3.05,0,0,1,1,2.33,3,3,0,0,1-1,2.27,3.45,3.45,0,0,1-2.45.94m2.82,30.37h-5.69v-25.1h5.69Z" transform="translate(-44.91 -39.38)"/><rect class="cls-2" x="549.08" y="110.74" width="5.71" height="37.16"/>
<path class="cls-2" d="M610,156.91a3.42,3.42,0,0,1-2.39-.9,3,3,0,0,1-1-2.31,3,3,0,0,1,1-2.33,3.35,3.35,0,0,1,2.39-.93,3.48,3.48,0,0,1,2.45.93,3,3,0,0,1,1,2.33,3,3,0,0,1-1,2.27,3.45,3.45,0,0,1-2.45.94m2.81,30.37h-5.68v-25.1h5.68Z" transform="translate(-44.91 -39.38)"/>
<path class="cls-2" d="M633.46,187a10,10,0,0,1-4.39.83q-7.3,0-7.3-7V166.64h-4.2v-4.46h4.2v-5.81l5.68-1.62v7.43h6v4.46h-6v12.55a5,5,0,0,0,.81,3.19,3.35,3.35,0,0,0,2.7,1,3.88,3.88,0,0,0,2.5-.83Z" transform="translate(-44.91 -39.38)"/>
<path class="cls-2" d="M661.64,162.18,650.32,191.3q-3.52,7.8-9.9,7.8a11.49,11.49,0,0,1-3-.33v-4.72a8,8,0,0,0,2.45.44,5.05,5.05,0,0,0,4.75-3.14l1.7-4.12-10-25h6.3l6,18.24c.06.23.21.83.44,1.81h.12c.08-.37.23-1,.44-1.76l6.28-18.29Z" transform="translate(-44.91 -39.38)"/>
</svg>