<svg xmlns="http://www.w3.org/2000/svg" viewBox="0 0 64.67 38.8" height="100"><defs><style>.cls-1{fill:#e50012;}</style></defs><title>100x40XP集团</title><path class="cls-1" d="M50.82,13.23h-8V25.57h2.92v-9.4h5.13a3.23,3.23,0,1,1,0,6.45H46.3v2.95h4.52a6.17,6.17,0,1,0,0-12.34"/><path class="cls-1" d="M27.74,13.23v4.13a.84.84,0,0,0,.84.85h2.15v2.66H28.05a3.23,3.23,0,0,1-3.24-3.23V13.23Z"/><path class="cls-1" d="M37.82,13.23v4.13a.85.85,0,0,1-.85.85H31.32v7.36h2.92v-4.7h3.27a3.23,3.23,0,0,0,3.23-3.23V13.23Z"/><path class="cls-1" d="M23.06,17.05a3.82,3.82,0,0,0-3.83-3.82H8.85V25.57h2.93v-5H19.1a1,1,0,0,1,0,2.06H12.37v2.92h6.86a3.82,3.82,0,0,0,3-6.17,3.84,3.84,0,0,0,.81-2.35m-4,1.16H11.78V16.15H19.1a1,1,0,0,1,0,2.06"/><path class="cls-1" d="M32.33,0C14.48,0,0,8.69,0,19.4S14.48,38.8,32.33,38.8s32.34-8.69,32.34-19.4S50.19,0,32.33,0m0,35.85c-16.72,0-30.28-7.37-30.28-16.45S15.61,3,32.33,3,62.62,10.32,62.62,19.4,49.06,35.85,32.33,35.85"/></svg>