<svg xmlns="http://www.w3.org/2000/svg" id="Ebene_1" height="100" viewBox="0 0 300 72.78"><g><path d="M15.38,16.62c-.27,4.65-2.1,8.91-7.47,8.91C.93,25.53,0,18.96,0,12.77S1.13,0,7.91,0c5.02,0,7.12,2.82,7.26,7.64h-3.17c-.07-2.79-.96-5.16-4.09-5.16C3.72,2.48,3.17,7.09,3.17,12.77s.55,10.29,4.75,10.29c3.68,0,4.2-3.44,4.3-6.43h3.17Z"></path><path d="M17.65,12.18c0-4.2,1.79-6.06,6.19-6.06,5.61,0,5.61,3.37,5.61,5.3v10.29c0,.76,0,1.48,.89,1.48,.38,0,.55-.07,.69-.17v2.06c-.21,.03-.96,.17-1.69,.17-1.1,0-2.48,0-2.62-2.37h-.07c-.93,1.65-2.72,2.65-4.44,2.65-3.44,0-5.02-2.06-5.02-5.37,0-2.58,1.1-4.37,3.48-5.09l3.89-1.17c2.1-.65,2.1-1.24,2.1-2.79,0-1.72-1.03-2.72-2.96-2.72-3.17,0-3.17,2.96-3.17,3.61v.17h-2.89Zm8.91,2.82c-1.07,1.14-3.61,1.38-4.92,2.17-.93,.59-1.41,1.31-1.41,2.92,0,1.86,.65,3.17,2.61,3.17s3.72-1.62,3.72-3.51v-4.75Z"></path><path d="M41.29,12.01c0-2.34-.62-3.61-2.72-3.61-.93,0-2.99,.24-2.99,2.82,0,2.17,2.27,2.58,4.54,3.34,2.24,.76,4.51,1.55,4.51,5.2,0,3.89-2.51,5.78-5.95,5.78-6.26,0-6.33-4.65-6.33-6.54h2.89c0,2.24,.62,4.27,3.44,4.27,.93,0,3.06-.45,3.06-3.06,0-2.48-2.27-2.99-4.51-3.75s-4.54-1.41-4.54-5.23c0-3.44,2.68-5.09,5.88-5.09,5.37,0,5.57,3.72,5.61,5.88h-2.89Z"></path><path d="M48.25,1.24h2.89V6.61h3.2v2.27h-3.2v11.84c0,1.48,.38,2.06,1.89,2.06,.62,0,.96-.07,1.27-.1v2.37c-.38,.07-1.14,.21-2.34,.21-2.99,0-3.72-1.24-3.72-3.65V8.88h-2.68v-2.27h2.68V1.24Z"></path><path d="M55.44,6.61h3.03l2.96,15.07h.07l3.13-15.07h3.41l3.06,15.07h.07l2.86-15.07h3.03l-4.37,18.44h-3.17l-3.23-15.07h-.07l-3.1,15.07h-3.37l-4.3-18.44Z"></path><path d="M81.7,16.17c0,2.82,0,7.09,3.54,7.09,2.75,0,3.13-2.89,3.13-4.27h2.89c0,1.96-1.17,6.54-6.19,6.54-4.51,0-6.4-3.13-6.4-9.46,0-4.61,.89-9.94,6.57-9.94s6.16,4.92,6.16,8.88v1.17h-9.7Zm6.68-2.27v-1c0-2.06-.65-4.51-3.2-4.51-3.03,0-3.37,3.72-3.37,4.82v.69h6.57Z"></path><path d="M94.57,6.61h2.89v2.75h.07c.83-1.76,1.93-3.24,3.99-3.24,.59,0,1,.07,1.27,.21v2.82c-.27-.03-.62-.14-1.55-.14-1.45,0-3.78,1.31-3.78,4.37v11.66h-2.89V6.61Z"></path><path d="M118.52,25.05h-3.37l-5.13-9.12-2.37,2.89v6.23h-2.89V.48h2.89V15.11h.07l6.47-8.5h3.37l-5.61,6.95,6.57,11.49Z"></path></g><g><path d="M136.35,35.83h2.78l2.68,10.62h.04l2.68-10.62h2.78v13.4h-1.65v-11.71h-.04l-2.96,11.71h-1.65l-2.96-11.71h-.04v11.71h-1.65v-13.4Z" fill="#009fe3"></path><path d="M149.22,42.21c0-2.29,.98-3.3,3.38-3.3,3.06,0,3.06,1.84,3.06,2.89v5.61c0,.41,0,.81,.49,.81,.21,0,.3-.04,.38-.09v1.13c-.11,.02-.53,.09-.92,.09-.6,0-1.35,0-1.43-1.29h-.04c-.51,.9-1.48,1.44-2.42,1.44-1.88,0-2.74-1.13-2.74-2.93,0-1.41,.6-2.38,1.89-2.78l2.12-.64c1.14-.36,1.14-.68,1.14-1.52,0-.94-.56-1.48-1.61-1.48-1.73,0-1.73,1.61-1.73,1.97v.09h-1.58Zm4.86,1.54c-.58,.62-1.97,.75-2.68,1.18-.51,.32-.77,.71-.77,1.59,0,1.01,.36,1.73,1.43,1.73s2.03-.88,2.03-1.91v-2.59Z" fill="#009fe3"></path><path d="M164.6,48.59c0,3-1.39,4.09-3.41,4.09-.62,0-3.04,0-3.3-2.51h1.58c.08,.92,.79,1.28,1.61,1.28,2.03,0,1.95-1.56,1.95-2.25v-1.31h-.04c-.34,.84-1.28,1.35-2.27,1.35-2.93,0-3.11-3.7-3.11-5.03,0-2.72,.73-5.29,3.28-5.29,1.09,0,1.97,.75,2.18,1.54h.04v-1.28h1.5v9.42Zm-5.35-4.39c0,1.63,.24,3.68,1.82,3.68,1.71,0,2.04-1.61,2.04-3.68,0-1.95-.34-3.94-2.03-3.94-1.46,0-1.84,1.54-1.84,3.94Z" fill="#009fe3"></path><path d="M166.67,39.17h1.5v1.18h.04c.41-.92,1.46-1.44,2.44-1.44,2.65,0,2.65,2.01,2.65,3.19v7.13h-1.58v-6.94c0-.77-.06-2.03-1.48-2.03-.84,0-1.99,.56-1.99,2.03v6.94h-1.58v-10.06Z" fill="#009fe3"></path><path d="M176.67,44.38c0,1.54,0,3.86,1.93,3.86,1.5,0,1.71-1.58,1.71-2.33h1.58c0,1.07-.64,3.56-3.38,3.56-2.46,0-3.49-1.71-3.49-5.16,0-2.51,.49-5.42,3.58-5.42s3.36,2.68,3.36,4.84v.64h-5.29Zm3.64-1.24v-.54c0-1.13-.36-2.46-1.74-2.46-1.65,0-1.84,2.03-1.84,2.63v.37h3.58Z" fill="#009fe3"></path><path d="M188,42.11c0-1.28-.34-1.97-1.48-1.97-.51,0-1.63,.13-1.63,1.54,0,1.18,1.24,1.41,2.48,1.82,1.22,.41,2.46,.84,2.46,2.83,0,2.12-1.37,3.15-3.25,3.15-3.41,0-3.45-2.53-3.45-3.56h1.58c0,1.22,.34,2.33,1.88,2.33,.51,0,1.67-.24,1.67-1.67,0-1.35-1.24-1.63-2.46-2.04-1.22-.41-2.48-.77-2.48-2.85,0-1.88,1.46-2.78,3.21-2.78,2.93,0,3.04,2.03,3.06,3.21h-1.58Z" fill="#009fe3"></path><path d="M191.41,35.83h1.58v1.8h-1.58v-1.8Zm0,3.34h1.58v10.06h-1.58v-10.06Z" fill="#009fe3"></path><path d="M201.77,49.22h-1.5v-1.18h-.04c-.41,.92-1.46,1.44-2.44,1.44-2.65,0-2.65-2.01-2.65-3.19v-7.13h1.58v6.94c0,.77,.06,2.03,1.48,2.03,.84,0,1.99-.56,1.99-2.03v-6.94h1.58v10.06Z" fill="#009fe3"></path><path d="M203.98,39.17h1.5v1.18h.04c.41-.92,1.46-1.44,2.44-1.44,1.16,0,1.86,.45,2.18,1.6,.45-.88,1.35-1.6,2.38-1.6,2.65,0,2.65,2.01,2.65,3.19v7.13h-1.58v-6.94c0-.77-.06-2.03-1.35-2.03-.73,0-1.88,.45-1.88,2.03v6.94h-1.58v-6.94c0-.77-.06-2.03-1.35-2.03-.73,0-1.88,.45-1.88,2.03v6.94h-1.58v-10.06Z" fill="#009fe3"></path><path d="M144.51,64.73c-.15,2.53-1.14,4.86-4.07,4.86-3.81,0-4.31-3.58-4.31-6.96s.62-6.96,4.31-6.96c2.74,0,3.88,1.54,3.96,4.16h-1.73c-.04-1.52-.53-2.81-2.23-2.81-2.29,0-2.59,2.51-2.59,5.61s.3,5.61,2.59,5.61c2.01,0,2.29-1.88,2.35-3.51h1.73Z" fill="#009fe3"></path><path d="M145.75,62.31c0-2.29,.98-3.3,3.38-3.3,3.06,0,3.06,1.84,3.06,2.89v5.61c0,.41,0,.81,.49,.81,.21,0,.3-.04,.38-.09v1.13c-.11,.02-.53,.09-.92,.09-.6,0-1.35,0-1.43-1.29h-.04c-.51,.9-1.48,1.44-2.42,1.44-1.88,0-2.74-1.13-2.74-2.93,0-1.41,.6-2.38,1.89-2.78l2.12-.64c1.14-.36,1.14-.68,1.14-1.52,0-.94-.56-1.48-1.61-1.48-1.73,0-1.73,1.61-1.73,1.97v.09h-1.58Zm4.86,1.54c-.58,.62-1.97,.75-2.68,1.18-.51,.32-.77,.71-.77,1.59,0,1.01,.36,1.73,1.43,1.73s2.03-.88,2.03-1.91v-2.59Z" fill="#009fe3"></path><path d="M158.64,62.21c0-1.28-.34-1.97-1.48-1.97-.51,0-1.63,.13-1.63,1.54,0,1.18,1.24,1.41,2.48,1.82,1.22,.41,2.46,.84,2.46,2.83,0,2.12-1.37,3.15-3.25,3.15-3.41,0-3.45-2.53-3.45-3.56h1.58c0,1.22,.34,2.33,1.88,2.33,.51,0,1.67-.24,1.67-1.67,0-1.35-1.24-1.63-2.46-2.04-1.22-.41-2.48-.77-2.48-2.85,0-1.88,1.46-2.78,3.21-2.78,2.93,0,3.04,2.03,3.06,3.21h-1.58Z" fill="#009fe3"></path><path d="M162.43,56.34h1.58v2.93h1.75v1.24h-1.75v6.45c0,.81,.21,1.13,1.03,1.13,.34,0,.53-.04,.69-.06v1.29c-.21,.04-.62,.11-1.28,.11-1.63,0-2.03-.68-2.03-1.99v-6.94h-1.46v-1.24h1.46v-2.93Z" fill="#009fe3"></path><path d="M166.91,55.93h1.58v1.8h-1.58v-1.8Zm0,3.34h1.58v10.06h-1.58v-10.06Z" fill="#009fe3"></path><path d="M170.64,59.27h1.5v1.18h.04c.41-.92,1.46-1.44,2.44-1.44,2.65,0,2.65,2.01,2.65,3.19v7.13h-1.58v-6.94c0-.77-.06-2.03-1.48-2.03-.84,0-1.99,.56-1.99,2.03v6.94h-1.58v-10.06Z" fill="#009fe3"></path><path d="M185.95,68.69c0,3-1.39,4.09-3.41,4.09-.62,0-3.04,0-3.3-2.51h1.58c.08,.92,.79,1.28,1.61,1.28,2.03,0,1.95-1.56,1.95-2.25v-1.31h-.04c-.34,.84-1.28,1.35-2.27,1.35-2.93,0-3.11-3.7-3.11-5.03,0-2.72,.73-5.29,3.28-5.29,1.09,0,1.97,.75,2.18,1.54h.04v-1.28h1.5v9.42Zm-5.35-4.39c0,1.63,.24,3.68,1.82,3.68,1.71,0,2.04-1.61,2.04-3.68,0-1.95-.34-3.94-2.03-3.94-1.46,0-1.84,1.54-1.84,3.94Z" fill="#009fe3"></path><path d="M198.26,59.4c0-1.41-.51-2.38-2.08-2.38-1.39,0-2.21,.75-2.21,2.18,0,3.77,6.32,1.52,6.32,6.42,0,3.1-2.27,3.98-4.16,3.98-3.13,0-4.05-1.61-4.05-4.46h1.65c0,1.5,.09,3.11,2.51,3.11,1.31,0,2.33-.94,2.33-2.36,0-3.79-6.32-1.59-6.32-6.51,0-1.24,.53-3.7,3.92-3.7,2.55,0,3.71,1.28,3.75,3.73h-1.65Z" fill="#009fe3"></path><path d="M205.03,59.01c2.91,0,3.62,2.46,3.62,5.29s-.73,5.29-3.62,5.29-3.62-2.46-3.62-5.29,.73-5.29,3.62-5.29Zm1.97,5.29c0-2.18-.32-4.05-2.01-4.05-1.59,0-1.93,1.88-1.93,4.05s.32,4.05,1.93,4.05,2.01-1.88,2.01-4.05Z" fill="#009fe3"></path><path d="M210.32,55.93h1.58v13.4h-1.58v-13.4Z" fill="#009fe3"></path><path d="M220.68,69.32h-1.5v-1.18h-.04c-.41,.92-1.46,1.44-2.44,1.44-2.65,0-2.65-2.01-2.65-3.19v-7.13h1.58v6.94c0,.77,.06,2.03,1.48,2.03,.84,0,1.99-.56,1.99-2.03v-6.94h1.58v10.06Z" fill="#009fe3"></path><path d="M223.21,56.34h1.58v2.93h1.75v1.24h-1.75v6.45c0,.81,.21,1.13,1.03,1.13,.34,0,.53-.04,.69-.06v1.29c-.21,.04-.62,.11-1.28,.11-1.63,0-2.03-.68-2.03-1.99v-6.94h-1.46v-1.24h1.46v-2.93Z" fill="#009fe3"></path><path d="M227.69,55.93h1.58v1.8h-1.58v-1.8Zm0,3.34h1.58v10.06h-1.58v-10.06Z" fill="#009fe3"></path><path d="M234.56,59.01c2.91,0,3.62,2.46,3.62,5.29s-.73,5.29-3.62,5.29-3.62-2.46-3.62-5.29,.73-5.29,3.62-5.29Zm1.97,5.29c0-2.18-.32-4.05-2.01-4.05-1.59,0-1.93,1.88-1.93,4.05s.32,4.05,1.93,4.05,2.01-1.88,2.01-4.05Z" fill="#009fe3"></path><path d="M239.76,59.27h1.5v1.18h.04c.41-.92,1.46-1.44,2.44-1.44,2.65,0,2.65,2.01,2.65,3.19v7.13h-1.58v-6.94c0-.77-.06-2.03-1.48-2.03-.84,0-1.99,.56-1.99,2.03v6.94h-1.58v-10.06Z" fill="#009fe3"></path><path d="M252.76,62.21c0-1.28-.34-1.97-1.48-1.97-.51,0-1.63,.13-1.63,1.54,0,1.18,1.24,1.41,2.48,1.82,1.22,.41,2.46,.84,2.46,2.83,0,2.12-1.37,3.15-3.25,3.15-3.41,0-3.45-2.53-3.45-3.56h1.58c0,1.22,.34,2.33,1.88,2.33,.51,0,1.67-.24,1.67-1.67,0-1.35-1.24-1.63-2.46-2.04-1.22-.41-2.48-.77-2.48-2.85,0-1.88,1.46-2.78,3.21-2.78,2.93,0,3.04,2.03,3.06,3.21h-1.58Z" fill="#009fe3"></path></g><g><path d="M145.31,25.05h-3.03V3.17h-6.16V.48h15.38V3.17h-6.19V25.05Z"></path><path d="M153.54,16.17c0,2.82,0,7.09,3.54,7.09,2.75,0,3.13-2.89,3.13-4.27h2.89c0,1.96-1.17,6.54-6.19,6.54-4.51,0-6.4-3.13-6.4-9.46,0-4.61,.89-9.94,6.57-9.94s6.16,4.92,6.16,8.88v1.17h-9.7Zm6.68-2.27v-1c0-2.06-.65-4.51-3.2-4.51-3.03,0-3.37,3.72-3.37,4.82v.69h6.57Z"></path><path d="M175.18,12.22c0-1.79-.72-3.82-2.92-3.82-1.79,0-3.61,.89-3.61,7.64,0,2.41,.03,7.23,3.51,7.23,2.48,0,3.03-2.62,3.03-4.61h2.89c0,2.92-1.45,6.88-6.06,6.88s-6.4-3.13-6.4-9.46c0-4.61,.89-9.94,6.57-9.94,5.02,0,5.88,3.96,5.88,6.09h-2.89Z"></path><path d="M181.07,.48h2.89V8.71h.07c.76-1.51,2.79-2.58,4.44-2.58,4.75,0,4.75,3.68,4.75,5.85v13.08h-2.89V12.32c0-1.41-.1-3.72-2.72-3.72-1.55,0-3.65,1.03-3.65,3.72v12.73h-2.89V.48Z"></path><path d="M197,6.61h2.75v2.17h.07c.76-1.69,2.68-2.65,4.47-2.65,4.85,0,4.85,3.68,4.85,5.85v13.08h-2.89V12.32c0-1.41-.1-3.72-2.72-3.72-1.55,0-3.65,1.03-3.65,3.72v12.73h-2.89V6.61Z"></path><path d="M218.68,6.12c5.33,0,6.64,4.51,6.64,9.7s-1.34,9.7-6.64,9.7-6.64-4.51-6.64-9.7,1.34-9.7,6.64-9.7Zm3.61,9.7c0-3.99-.58-7.43-3.68-7.43-2.92,0-3.54,3.44-3.54,7.43s.59,7.43,3.54,7.43,3.68-3.44,3.68-7.43Z"></path><path d="M228.39,.48h2.89V25.05h-2.89V.48Z"></path><path d="M240.98,6.12c5.33,0,6.64,4.51,6.64,9.7s-1.34,9.7-6.64,9.7-6.64-4.51-6.64-9.7,1.34-9.7,6.64-9.7Zm3.61,9.7c0-3.99-.58-7.43-3.68-7.43-2.92,0-3.54,3.44-3.54,7.43s.59,7.43,3.54,7.43,3.68-3.44,3.68-7.43Z"></path><path d="M262.66,23.88c0,5.51-2.55,7.5-6.26,7.5-1.14,0-5.57,0-6.06-4.61h2.89c.14,1.69,1.45,2.34,2.96,2.34,3.72,0,3.58-2.86,3.58-4.13v-2.41h-.07c-.62,1.55-2.34,2.48-4.16,2.48-5.37,0-5.71-6.78-5.71-9.22,0-4.99,1.34-9.7,6.02-9.7,2,0,3.61,1.38,3.99,2.82h.07v-2.34h2.75V23.88Zm-9.81-8.05c0,2.99,.45,6.74,3.34,6.74,3.13,0,3.75-2.96,3.75-6.74,0-3.58-.62-7.23-3.72-7.23-2.68,0-3.37,2.82-3.37,7.23Z"></path><path d="M266.62,.48h2.89V3.78h-2.89V.48Zm0,6.13h2.89V25.05h-2.89V6.61Z"></path><path d="M275.88,16.17c0,2.82,0,7.09,3.54,7.09,2.75,0,3.13-2.89,3.13-4.27h2.89c0,1.96-1.17,6.54-6.19,6.54-4.51,0-6.4-3.13-6.4-9.46,0-4.61,.89-9.94,6.57-9.94s6.16,4.92,6.16,8.88v1.17h-9.7Zm6.68-2.27v-1c0-2.06-.65-4.51-3.2-4.51-3.03,0-3.37,3.72-3.37,4.82v.69h6.57Z"></path><path d="M296.66,12.01c0-2.34-.62-3.61-2.72-3.61-.93,0-2.99,.24-2.99,2.82,0,2.17,2.27,2.58,4.54,3.34,2.24,.76,4.51,1.55,4.51,5.2,0,3.89-2.51,5.78-5.95,5.78-6.26,0-6.33-4.65-6.33-6.54h2.89c0,2.24,.62,4.27,3.44,4.27,.93,0,3.06-.45,3.06-3.06,0-2.48-2.27-2.99-4.51-3.75-2.24-.76-4.54-1.41-4.54-5.23,0-3.44,2.68-5.09,5.88-5.09,5.37,0,5.57,3.72,5.61,5.88h-2.89Z"></path></g><rect x="125.53" y=".02" width="3.57" height="72.76" fill="#009fe3"></rect></svg>