<?xml version="1.0" encoding="UTF-8"?><svg id="a" xmlns="http://www.w3.org/2000/svg" height="100" viewBox="0 0 248.76 48.95"><defs><style>.b{fill:#1e2eb8;}</style></defs><g><g><path class="b" d="M82.74,11.71c1.41-1.83,3.32-2.98,5.92-2.98,3.02,0,5.2,1.36,6.43,3.49,1.45-2.13,3.79-3.49,6.9-3.49,5.15,0,7.92,3.83,7.92,8.43v12.65h-3.49v-12.44c0-3.28-1.66-5.54-4.94-5.54s-5.15,2.51-5.15,5.75v12.22h-3.45v-12.44c0-3.28-1.66-5.54-4.94-5.54s-5.15,2.51-5.15,5.75v12.22h-3.45V9.24h3.41v2.47Z"/><path class="b" d="M113.44,19.59c0-6.13,4.64-10.9,10.78-10.9s10.65,4.73,10.65,10.86-4.64,10.9-10.78,10.9-10.65-4.73-10.65-10.86Zm17.89-.04c0-4.34-3.11-7.84-7.2-7.84s-7.16,3.41-7.16,7.88,3.11,7.84,7.2,7.84,7.16-3.41,7.16-7.88Z"/><path class="b" d="M138.61,0h3.45V12.44c1.79-2.26,4.51-3.66,7.54-3.66,5.49,0,10.18,4.13,10.18,10.69s-4.9,10.82-10.35,10.82c-2.9,0-5.62-1.32-7.41-3.53v3.07h-3.41V0Zm10.52,27.26c4.05,0,7.11-2.9,7.11-7.71s-3.02-7.71-6.99-7.71-7.33,3.28-7.33,7.79,3.24,7.62,7.2,7.62Z"/><path class="b" d="M167.3,6.13h-3.83V2.34h3.83v3.79Zm-.17,3.11V29.81h-3.49V9.24h3.49Z"/><path class="b" d="M175.7,29.81h-3.49V0h3.49V29.81Z"/><path class="b" d="M197.43,23.98l2.09,1.92c-2.3,2.98-5.37,4.56-9.33,4.56-6.13,0-10.56-4.47-10.56-10.86s4.6-10.86,10.48-10.86,10.14,4.17,10.14,10.6c0,.55-.09,1.24-.13,1.45h-16.91c.47,4.17,3.58,6.73,7.28,6.73,2.6,0,4.94-1.06,6.94-3.53Zm-14.23-5.88h13.54c-.51-4-3.11-6.43-6.6-6.43s-6.35,2.34-6.94,6.43Z"/><path class="b" d="M204.79,9.24l6.64,16.35,6.64-16.35h3.62l-11.97,28.24h-3.58l3.54-7.84-8.69-20.4h3.79Z"/><path class="b" d="M240.2,23.98l2.09,1.92c-2.3,2.98-5.37,4.56-9.33,4.56-6.13,0-10.56-4.47-10.56-10.86s4.6-10.86,10.48-10.86,10.14,4.17,10.14,10.6c0,.55-.09,1.24-.13,1.45h-16.91c.47,4.17,3.58,6.73,7.28,6.73,2.6,0,4.94-1.06,6.94-3.53Zm-14.23-5.88h13.54c-.51-4-3.11-6.43-6.6-6.43s-6.35,2.34-6.94,6.43Z"/></g><path class="b" d="M246.38,8.73c1.35,0,2.38,.96,2.38,2.27s-1.04,2.27-2.38,2.27-2.38-.98-2.38-2.26,1.02-2.28,2.38-2.28Zm1.97,2.28c0-1.08-.86-1.9-1.97-1.9s-1.96,.81-1.96,1.89,.86,1.9,1.96,1.9,1.97-.81,1.97-1.89Zm-2.81,1.1v-2.21h1.07c.51,0,.8,.26,.8,.68,0,.32-.2,.54-.53,.63l.53,.9h-.53l-.49-.84h-.37v.84h-.47Zm.47-1.78v.5h.58c.23,0,.35-.11,.35-.26s-.11-.24-.33-.24h-.6Z"/></g><g><path class="b" d="M78.93,46.48l4.27-9.61h1.15l4.26,9.61h-1.25l-1.28-2.9h-4.66l-1.26,2.9h-1.24Zm6.7-3.94l-1.88-4.26-1.85,4.26h3.73Z"/><path class="b" d="M90.9,40.88c.49-.73,1.3-1.19,2.37-1.19,1.83,0,2.8,1.3,2.8,3.19v3.61h-1.11v-3.54c0-1.33-.67-2.25-1.95-2.25s-2.1,1-2.1,2.32v3.47h-1.11v-6.63h1.1v1.03Z"/><path class="b" d="M102.12,36.87v9.61h-1.18v-9.61h1.18Z"/><path class="b" d="M105.23,40.88c.49-.73,1.3-1.19,2.38-1.19,1.83,0,2.8,1.3,2.8,3.19v3.61h-1.11v-3.54c0-1.33-.67-2.25-1.95-2.25s-2.1,1-2.1,2.32v3.47h-1.11v-6.63h1.1v1.03Z"/><path class="b" d="M112.31,40.84h-.91v-.99h.91v-2.03h1.11v2.03h1.54v.99h-1.54v3.78c0,.63,.3,.87,.81,.87h.73v1h-.89c-1.24,0-1.76-.55-1.76-1.77v-3.87Z"/><path class="b" d="M121.47,44.6l.67,.62c-.74,.96-1.73,1.47-3.01,1.47-1.98,0-3.4-1.44-3.4-3.5s1.48-3.5,3.38-3.5,3.27,1.35,3.27,3.42c0,.18-.03,.4-.04,.47h-5.45c.15,1.35,1.15,2.17,2.35,2.17,.84,0,1.59-.34,2.24-1.14Zm-4.59-1.9h4.37c-.16-1.29-1-2.07-2.13-2.07s-2.05,.76-2.24,2.07Z"/><path class="b" d="M125.02,46.48h-1.13v-9.61h1.13v9.61Z"/><path class="b" d="M137.61,43.72l.91,.52c-.74,1.41-2.1,2.46-4.12,2.46-2.79,0-4.79-2.1-4.79-5.01s2.1-5.04,4.92-5.04c1.84,0,3.21,.92,3.95,2.4l-.95,.56c-.75-1.36-1.74-1.91-3.03-1.91-2.13,0-3.68,1.7-3.68,3.95s1.54,3.98,3.61,3.98c1.37,0,2.43-.62,3.19-1.92Z"/><path class="b" d="M139.64,43.19c0-1.98,1.5-3.52,3.47-3.52s3.43,1.52,3.43,3.5-1.5,3.52-3.47,3.52-3.43-1.52-3.43-3.5Zm5.77-.01c0-1.4-1-2.53-2.32-2.53s-2.31,1.1-2.31,2.54,1,2.53,2.32,2.53,2.31-1.1,2.31-2.54Z"/><path class="b" d="M149.1,40.65c.45-.59,1.07-.96,1.91-.96,.97,0,1.67,.44,2.07,1.13,.47-.69,1.22-1.13,2.22-1.13,1.66,0,2.55,1.24,2.55,2.72v4.08h-1.13v-4.01c0-1.06-.54-1.78-1.59-1.78s-1.66,.81-1.66,1.85v3.94h-1.11v-4.01c0-1.06-.54-1.78-1.59-1.78s-1.66,.81-1.66,1.85v3.94h-1.11v-6.63h1.1v.8Z"/><path class="b" d="M159.6,39.85h1.1v1.07c.58-.76,1.46-1.22,2.46-1.22,1.76,0,3.27,1.33,3.27,3.45s-1.59,3.49-3.35,3.49c-.91,0-1.77-.4-2.36-1.08v3.41h-1.11v-9.1Zm3.39,5.81c1.3,0,2.29-.93,2.29-2.49s-.97-2.48-2.25-2.48-2.36,1.06-2.36,2.51,1.03,2.46,2.32,2.46Z"/><path class="b" d="M172.44,45.4c-.55,.78-1.51,1.22-2.54,1.22-1.46,0-2.47-.8-2.47-2.02s.89-2.03,3.05-2.03h1.95c-.01-1.25-.67-1.95-1.84-1.95-.74,0-1.41,.33-2.03,.89l-.59-.74c.69-.66,1.59-1.11,2.73-1.11,1.85,0,2.83,1.21,2.83,2.97v3.86h-1.09v-1.08Zm-3.91-.82c0,.6,.55,1.15,1.5,1.15,1.22,0,2.33-.85,2.4-2.29h-1.94c-1.44,0-1.96,.41-1.96,1.14Z"/><path class="b" d="M176.34,40.88c.49-.73,1.31-1.19,2.38-1.19,1.83,0,2.8,1.3,2.8,3.19v3.61h-1.11v-3.54c0-1.33-.67-2.25-1.95-2.25s-2.1,1-2.1,2.32v3.47h-1.11v-6.63h1.1v1.03Z"/><path class="b" d="M183.44,39.85l2.14,5.27,2.14-5.27h1.17l-3.86,9.1h-1.15l1.14-2.53-2.8-6.58h1.22Z"/></g><g><path class="b" d="M63.75,4.33h2.57v.47h-1.05v2.38h-.49v-2.38h-1.04v-.47Zm6.03,2.84h-.49v-2.35l-.84,1.58h-.43l-.85-1.6v2.38h-.49v-2.84h.75l.81,1.5,.78-1.5h.75v2.84Z"/><g><g><polygon class="b" points="0 32.61 0 46.48 14.17 46.48 14.17 18.44 0 32.61"/><path class="b" d="M48.33,4.33s-.08,0-.12,0H28.28l-14.11,14.11h5.95c3.54,.02,5.38,2.44,5.38,6.23v21.81h14.17V18.44h5.95c3.54,.02,5.38,2.44,5.38,6.23v21.81h14.17V21.01c0-10.2-5.59-16.68-16.84-16.68Z"/></g><rect class="b" y="4.33" width="14.17" height="14.11"/></g></g></svg>