<svg xmlns="http://www.w3.org/2000/svg"  height="100" viewBox="0 0 176.32 32.687">
  <g id="Artwork_9" data-name="Artwork 9" transform="translate(88.16 16.343)">
    <g id="Group_77" data-name="Group 77" transform="translate(-88.16 -16.343)">
      <path id="Path_225" data-name="Path 225" d="M29.891,38.645H21.746L7.74,17.8V38.645H0V8.264H10.119l12.039,17.4V8.264h7.733Z" transform="translate(0 -6.671)" fill="#005bac"/>
      <path id="Path_226" data-name="Path 226" d="M184.141,52.3a4.987,4.987,0,0,0-1.234-3.508,4.9,4.9,0,0,0-3.617-1.183,6.058,6.058,0,0,0-3.775,1.118,4.7,4.7,0,0,0-1.676,3.573h10.3m7.989,4.314H173.878a5.244,5.244,0,0,0,2.213,4.163,10.569,10.569,0,0,0,6.05,1.43,14.442,14.442,0,0,0,4.881-.853,17.78,17.78,0,0,0,3.745-1.821h.88v5.891a30.913,30.913,0,0,1-5.083,1.429,27.309,27.309,0,0,1-5.274.464c-4.963,0-8.785-1.038-11.428-3.113s-3.969-4.991-3.969-8.843a11.415,11.415,0,0,1,3.755-8.987c2.519-2.216,5.948-3.332,10.334-3.332,4.039,0,7.068.974,9.1,2.867,2.021,1.872,3.044,4.579,3.044,8.14Z" transform="translate(-133.904 -34.744)" fill="#005bac"/>
      <path id="Path_227" data-name="Path 227" d="M337.806,69.786h-7.989V67.267a24.069,24.069,0,0,1-4.026,2.353,10.575,10.575,0,0,1-4.33.818,8.591,8.591,0,0,1-6.308-2.2c-1.465-1.455-2.2-3.6-2.2-6.468V46.845h7.985v11.39c0,1.149.039,2.135.093,2.886a5.77,5.77,0,0,0,.572,1.913,2.436,2.436,0,0,0,1.278,1.112,6.359,6.359,0,0,0,2.345.351,8.094,8.094,0,0,0,2.223-.351,9.244,9.244,0,0,0,2.366-1.029V46.845h7.989Z" transform="translate(-252.608 -37.812)" fill="#005bac"/>
      <path id="Path_228" data-name="Path 228" d="M476.06,59.989a6.472,6.472,0,0,1-3.437,5.7c-2.308,1.463-5.443,2.2-9.445,2.2a29.112,29.112,0,0,1-6-.57,25.759,25.759,0,0,1-4.35-1.262v-6h.732c.412.223.874.488,1.4.814a14.219,14.219,0,0,0,2.222.96,16.68,16.68,0,0,0,2.82.8,15.623,15.623,0,0,0,3.36.322,9.35,9.35,0,0,0,3.488-.459c.75-.316,1.128-.782,1.128-1.388a1.3,1.3,0,0,0-.666-1.221,8.844,8.844,0,0,0-2.517-.731c-.6-.109-1.417-.255-2.4-.4a27.312,27.312,0,0,1-2.776-.531,9.838,9.838,0,0,1-5-2.532,6.009,6.009,0,0,1-1.654-4.286c0-2.2,1.113-4.031,3.39-5.512s5.352-2.2,9.28-2.2a27.437,27.437,0,0,1,5.325.529,25.958,25.958,0,0,1,3.966,1.117v5.806h-.7a16.4,16.4,0,0,0-4.009-1.809,15.15,15.15,0,0,0-4.582-.712,9.258,9.258,0,0,0-3.244.482c-.894.311-1.333.784-1.333,1.365a1.444,1.444,0,0,0,.611,1.251,8.02,8.02,0,0,0,2.8.857c.811.132,1.692.306,2.653.444.906.142,1.865.318,2.8.543a9.209,9.209,0,0,1,4.652,2.364,5.837,5.837,0,0,1,1.49,4.068" transform="translate(-365.507 -35.259)" fill="#005bac"/>
      <path id="Path_229" data-name="Path 229" d="M599.018,60.848a5.545,5.545,0,0,0,1.168-2.111,11.953,11.953,0,0,0,.385-3.45,11.648,11.648,0,0,0-.408-3.4,5.706,5.706,0,0,0-1.1-2.192,3.918,3.918,0,0,0-1.705-1.2,7.27,7.27,0,0,0-4.2-.06,4.224,4.224,0,0,0-1.74,1.156,5.663,5.663,0,0,0-1.154,2.2,11.747,11.747,0,0,0-.451,3.494,12.421,12.421,0,0,0,.394,3.3,5.73,5.73,0,0,0,1.111,2.206,4,4,0,0,0,1.693,1.159,6.577,6.577,0,0,0,2.257.38,6.378,6.378,0,0,0,2.074-.349,3.773,3.773,0,0,0,1.669-1.137m9.78-5.6a11.483,11.483,0,0,1-3.565,8.933c-2.389,2.162-5.721,3.253-10.024,3.253s-7.645-1.091-10.031-3.253c-2.387-2.178-3.559-5.149-3.559-8.933s1.184-6.767,3.6-8.943c2.377-2.155,5.709-3.256,9.993-3.256q6.514,0,10.051,3.288a11.546,11.546,0,0,1,3.538,8.912" transform="translate(-469.465 -34.746)" fill="#005bac"/>
      <path id="Path_230" data-name="Path 230" d="M739.042,9h9.314V5.632l7.325-3.163h.746V9h7.356v5.041H756.44V24.365a2.942,2.942,0,0,0,3.4,3,7.315,7.315,0,0,0,3.16-.651h.825v4.958a23.078,23.078,0,0,1-10.07.344s-3.635-.572-4.8-3.757a9.259,9.259,0,0,1-.6-3.08V14.025h-9.089V31.933H731.24V14.025h-3.385V9.02h3.453s-.436-4.907,2.776-7.167c0,0,3.56-2.968,12.691-1.39V5.637h-.665s-5.484-1.682-6.758.927A5.454,5.454,0,0,0,739.042,9" transform="translate(-587.504 0)" fill="#005bac"/>
    </g>
  </g>
</svg>
