<?xml version="1.0" encoding="utf-8"?>
<!-- Generator: Adobe Illustrator 25.2.1, SVG Export Plug-In . SVG Version: 6.00 Build 0)  -->
<svg version="1.1" xmlns="http://www.w3.org/2000/svg" xmlns:xlink="http://www.w3.org/1999/xlink" x="0px" y="0px"
	height="100" viewBox="0 0 196.3 184" style="enable-background:new 0 0 196.3 184;" xml:space="preserve">
<style type="text/css">
	.st0{fill-rule:evenodd;clip-rule:evenodd;fill:#000;}
</style>
<g id="Ebene_1">
	<path class="st0" d="M46.3,169.3L5.6,179.6l0-174.8h53.3c21.5,0,44.3,10.7,44.3,49.5c0,34.4-22,46.8-42.7,50.1v-58
		c0-5.9-4.1-14.4-13.3-14.4h-0.8V169.3z"/>
	<g>
		<path class="st0" d="M129.1,61.4v22.4c0,0,40.2-12.4,37.7,9.9c-2.6,23.9-21.3,28.1-51.7,28.6l0,25.2c0,0,43,0.1,60.1-16.1
			c16.6-15.7,16.2-34.3,16.6-40.5c0.4-6.2-4.6-34.1-33.3-28.7l0-1.1l32.4-32V4.8H115l0,24.4h42.8L129.1,61.4z"/>
	</g>
</g>
<g id="Ebene_2">
</g>
</svg>
