<?xml version="1.0" encoding="utf-8"?>
<!-- Generator: Adobe Illustrator 24.1.0, SVG Export Plug-In . SVG Version: 6.00 Build 0)  -->
<svg version="1.1" id="Gruppe_228" xmlns="http://www.w3.org/2000/svg" xmlns:xlink="http://www.w3.org/1999/xlink" x="0px" y="0px"
	 viewBox="0 0 168.8 62.1" height="100" style="enable-background:new 0 0 168.8 62.1;" xml:space="preserve">
<style type="text/css">
	.st0{fill-rule:evenodd;clip-rule:evenodd;fill:#757474;}
	.st1{fill:#757474;}
	.st2{fill:#699AB4;}
</style>
<path id="Pfad_485" class="st0" d="M93.5,48.2c-4.5,0-7.3-3.3-6.1-8.6c1.2-5.3,2.4-11.4,3.6-16.8c1.2-5.3,4.8-8.6,11.1-8.6h17.5
	c6,0,8.7,2.6,7.4,8.8c-0.8,3.7-1.3,6.3-1.8,8.7s-2.1,4.4-6.6,4.4H98c-0.3,1.2-0.5,1.9-0.6,2.5c-0.6,3,1.7,3.2,3.4,3.2h21.8l-1.2,6.4
	H93.5z M99.7,28.7h16.9c0,0,0.6-3,0.8-4.1s-0.8-2-2.2-2h-11c-1.9,0-3.3,0.4-3.9,3.1L99.7,28.7z"/>
<path id="Pfad_486" class="st1" d="M57.7,48.2h-10c0,0,5.1-24.1,5.4-25.4c1.2-5.3,4.8-8.6,11-8.6h15c6,0,8.7,2.6,7.4,8.8l-0.8,3.7
	h-9.1c0.2-0.8,0.3-1.7,0.3-2.2c0.2-1.1-0.8-2-2.2-2h-8.5c-1.9,0-3.3,0.4-3.9,3.1L57.7,48.2z"/>
<path id="Pfad_487" class="st0" d="M20.6,22.6c-1.3,0.1-2.4,1-2.7,2.2l-3,14c-0.3,0.9,0.3,1.9,1.2,2.2c0.2,0.1,0.4,0.1,0.6,0.1H32
	c1.3-0.1,2.4-1,2.7-2.2l0.9-4.2h9.2l-1.9,9.1c-0.5,2.4-2.1,4.4-6.6,4.4H17.9l-4.5-3L9.9,62.1H0l8.3-39.2c1.2-5.3,4.8-8.6,11.1-8.6
	h7.9l-1.8,8.3H20.6z"/>
<path id="Pfad_488" class="st2" d="M33.7,14.3h5.8c6,0,8.7,2.6,7.4,8.8l-1.2,5.6H33.3c-1.9,0-2.5-1.1-2.2-2.3
	C31.7,23.3,33.7,14.3,33.7,14.3z"/>
<path id="Pfad_489" class="st1" d="M137.4,0h10l-3.7,17.4l5.3-3.1h12.1c6,0,8.7,2.6,7.4,8.8l-5.3,25.2h-9.1c0,0,4.9-23.1,5-23.6
	c0.2-1.1-0.8-2-2.2-2h-11c-1.9,0-3.3,0.4-3.9,3.1l-4.8,22.5h-10L137.4,0z"/>
</svg>
